<svg width="45" height="44" viewBox="0 0 45 44" fill="none" xmlns="http://www.w3.org/2000/svg">
<path d="M2.75107 30.0066H12.2227V43.2315H2.75107V30.0066ZM10.2576 31.9717H4.71619V41.2664H10.2576V31.9717ZM32.7773 15.0131H42.2489V43.2315H32.7773V15.0131ZM40.2839 16.9782H34.7424V41.2665H40.2839V16.9782ZM17.7642 22.5H27.2358V43.2315H17.7642L17.7642 22.5ZM25.2708 24.4651H19.7293V41.2664H25.2708V24.4651ZM45 43.2315H0V41.2664H45V43.2315ZM40.3625 10.3559H38.3974V1.96512H30.0065V0H40.3625L40.3625 10.3559ZM3.78079 18.845H3.73357V16.88C15.9691 16.8603 27.0437 11.9068 35.0778 3.90327L38.6922 0.288878L40.0814 1.67823L36.4519 5.29395C32.2713 9.48849 27.2869 12.8787 21.7487 15.2144L21.4467 15.3275C16.2378 17.5518 10.1774 18.845 3.815 18.845H3.77898H3.78075L3.78079 18.845Z" fill="black"/>
</svg>
